<?xml version="1.0" encoding="UTF-8"?>
<!-- Generator: visioncortex VTracer 0.6.3 -->
<svg version="1.1" xmlns="http://www.w3.org/2000/svg" width="1280" height="495">
<path d="M0 0 C422.4 0 844.8 0 1280 0 C1280 163.35 1280 326.7 1280 495 C857.6 495 435.2 495 0 495 C0 331.65 0 168.3 0 0 Z " fill="#F9FCFE" transform="translate(0,0)"/>
<path d="M0 0 C0.62 0.34 1.25 0.69 1.89 1.04 C2.15 9.92 2.34 18.79 2.46 27.67 C2.52 31.79 2.6 35.91 2.72 40.03 C2.84 44.01 2.91 47.99 2.93 51.98 C2.95 53.49 2.99 55.01 3.05 56.52 C3.23 61.19 3.22 65.51 1.89 70.04 C-1.38 73.38 -4.87 75.17 -9.11 77.04 C-10.3 77.77 -11.47 78.52 -12.61 79.31 C-19.8 83.97 -27.07 88.49 -34.41 92.93 C-40.46 96.61 -46.39 100.44 -52.29 104.36 C-54.68 105.79 -56.39 106.61 -59.11 107.04 C-59.11 107.7 -59.11 108.36 -59.11 109.04 C-60.52 109.86 -61.94 110.67 -63.36 111.48 C-64.15 111.93 -64.94 112.38 -65.75 112.85 C-67.9 113.93 -69.76 114.57 -72.11 115.04 C-72.11 115.7 -72.11 116.36 -72.11 117.04 C-74.27 118.59 -76.42 120.02 -78.67 121.42 C-79.28 121.8 -79.89 122.19 -80.52 122.59 C-83.57 124.51 -86.65 126.37 -89.79 128.15 C-92.49 129.69 -95.12 131.28 -97.73 132.98 C-101.51 135.4 -105.31 137.79 -109.14 140.14 C-110.05 140.7 -110.95 141.26 -111.89 141.83 C-113.7 142.94 -115.51 144.05 -117.32 145.16 C-122.63 148.42 -127.77 151.84 -132.83 155.48 C-135.79 157.51 -138.9 159.21 -142.07 160.91 C-143.98 161.97 -145.75 163.11 -147.55 164.35 C-150.11 166.04 -150.11 166.04 -152.11 166.04 C-152.11 166.7 -152.11 167.36 -152.11 168.04 C-151.42 168.25 -150.74 168.47 -150.03 168.69 C-146.21 170.46 -143.48 172.94 -140.36 175.73 C-139.11 176.83 -137.85 177.92 -136.6 179.02 C-136 179.54 -135.39 180.07 -134.77 180.61 C-132.75 182.35 -130.67 183.99 -128.55 185.6 C-124.26 188.87 -120.16 192.35 -116.05 195.85 C-110.8 200.32 -105.46 204.69 -100.11 209.04 C-98.38 210.46 -96.65 211.87 -94.92 213.29 C-90.33 217.05 -85.72 220.8 -81.11 224.54 C-74.76 229.69 -68.43 234.86 -62.11 240.04 C-60.28 241.54 -58.44 243.04 -56.61 244.54 C-53.92 246.74 -51.23 248.95 -48.54 251.15 C-44.46 254.49 -40.38 257.83 -36.28 261.15 C-29.13 266.95 -21.99 272.77 -14.94 278.69 C-12.99 280.31 -11.02 281.91 -9.03 283.48 C-8.05 284.26 -7.06 285.05 -6.05 285.85 C-5.17 286.54 -4.29 287.23 -3.39 287.94 C0.24 291.29 1.77 293.76 2.25 298.76 C2.26 300.22 2.25 301.68 2.23 303.14 C2.23 303.94 2.23 304.74 2.23 305.56 C2.23 308.2 2.21 310.83 2.18 313.47 C2.18 315.3 2.17 317.13 2.17 318.96 C2.16 323.77 2.13 328.58 2.1 333.4 C2.07 338.31 2.05 343.22 2.04 348.14 C2 357.77 1.95 367.41 1.89 377.04 C-2.76 374.81 -6.51 372.25 -10.36 368.85 C-11.51 367.86 -12.66 366.87 -13.81 365.87 C-14.37 365.39 -14.94 364.9 -15.51 364.4 C-17.67 362.56 -19.88 360.8 -22.11 359.04 C-27.66 354.64 -33.04 350.05 -38.44 345.46 C-41.16 343.15 -43.88 340.85 -46.61 338.54 C-49.9 335.76 -53.19 332.98 -56.47 330.19 C-62.1 325.39 -67.79 320.66 -73.59 316.06 C-76.96 313.36 -80.27 310.59 -83.59 307.82 C-86.84 305.09 -90.12 302.4 -93.42 299.73 C-97.84 296.13 -102.14 292.42 -106.42 288.67 C-111.88 283.89 -117.46 279.35 -123.19 274.92 C-127.49 271.59 -131.5 268.02 -135.5 264.34 C-138.51 261.69 -141.63 259.24 -144.8 256.79 C-151.86 251.32 -158.58 245.5 -165.3 239.62 C-174.68 231.45 -184.3 223.57 -193.96 215.73 C-195.82 214.21 -197.67 212.69 -199.52 211.16 C-201.16 209.81 -202.84 208.5 -204.54 207.24 C-205.63 206.4 -205.63 206.4 -206.73 205.54 C-207.37 205.08 -208 204.61 -208.65 204.13 C-213.19 197.62 -211.31 185.5 -211.35 177.86 C-211.35 177.15 -211.36 176.44 -211.36 175.7 C-211.38 171.93 -211.4 168.16 -211.4 164.38 C-211.42 160.49 -211.45 156.61 -211.49 152.72 C-211.52 149.72 -211.52 146.72 -211.53 143.71 C-211.53 142.28 -211.54 140.85 -211.56 139.41 C-211.59 137.41 -211.58 135.41 -211.58 133.41 C-211.59 132.27 -211.59 131.14 -211.6 129.97 C-211 126.4 -209.89 125.28 -207.11 123.04 C-205.3 121.8 -205.3 121.8 -203.46 120.74 C-202.77 120.35 -202.08 119.95 -201.37 119.54 C-200.65 119.13 -199.92 118.72 -199.17 118.29 C-197.63 117.4 -196.1 116.51 -194.56 115.62 C-193.8 115.19 -193.04 114.75 -192.26 114.3 C-189.31 112.57 -186.39 110.78 -183.48 108.98 C-178.92 106.15 -174.34 103.36 -169.73 100.6 C-169.1 100.22 -168.47 99.85 -167.82 99.46 C-165.33 97.97 -162.84 96.48 -160.35 94.99 C-145.81 86.3 -131.33 77.51 -116.92 68.6 C-113.22 66.32 -109.5 64.09 -105.73 61.92 C-98.79 57.89 -91.95 53.7 -85.11 49.52 C-77.75 45.03 -70.36 40.58 -62.96 36.16 C-58.53 33.5 -54.12 30.83 -49.73 28.1 C-43.87 24.47 -37.93 20.98 -31.98 17.48 C-19.71 10.27 -19.71 10.27 -7.82 2.44 C-6.76 1.72 -6.76 1.72 -5.67 0.98 C-4.78 0.34 -4.78 0.34 -3.86 -0.31 C-2.11 -0.96 -2.11 -0.96 0 0 Z " fill="#007DFB" transform="translate(212.109619140625,2.959228515625)"/>
<path d="M0 0 C4.61 1.43 7.32 2.83 10.81 6.19 C18.38 13.42 18.38 13.42 27.12 19.05 C29.96 20.48 31.78 22.73 34 25 C35.34 26.24 36.7 27.47 38.06 28.69 C39.04 29.56 39.04 29.56 40.04 30.45 C41.91 32.06 41.91 32.06 44 32.89 C46.72 34.4 48.06 36.58 50 39 C51.87 40.45 53.79 41.85 55.75 43.19 C57.53 44.41 59.3 45.67 61 47 C61 47.66 61 48.32 61 49 C61.56 49.25 62.12 49.5 62.69 49.75 C65.4 51.22 67.57 52.97 69.94 54.94 C70.9 55.73 71.86 56.53 72.84 57.34 C75.06 59.2 77.27 61.08 79.47 62.97 C80.05 63.46 80.62 63.96 81.22 64.47 C82.34 65.43 83.47 66.4 84.58 67.37 C87.28 69.68 89.8 71.49 93 73 C94.69 74.65 96.35 76.31 98 78 C98.76 78.56 99.53 79.11 100.31 79.69 C101.15 80.34 101.15 80.34 102 81 C102 81.66 102 82.32 102 83 C102.91 83.23 103.81 83.45 104.75 83.69 C108.55 85.22 109.5 86.82 112 90 C113.48 91.3 115 92.55 116.56 93.75 C117.45 94.44 118.33 95.13 119.24 95.84 C120.15 96.56 121.06 97.27 122 98 C126.95 101.98 131.87 106 136.67 110.17 C137.29 110.71 137.92 111.25 138.56 111.81 C139.79 112.87 141.01 113.94 142.23 115.01 C145.03 117.45 147.63 119.45 151 121 C152.67 122.67 154.33 124.33 156 126 C156.99 126.66 157.98 127.32 159 128 C162.09 130.06 164.38 132.38 167 135 C168.26 135.92 169.53 136.81 170.81 137.69 C172.39 138.83 172.39 138.83 174 140 C174 140.66 174 141.32 174 142 C174.66 142 175.32 142 176 142 C176 142.66 176 143.32 176 144 C176.56 144.25 177.12 144.51 177.7 144.77 C180.34 146.18 182.49 147.86 184.81 149.75 C185.69 150.46 186.56 151.17 187.46 151.9 C190.18 154.15 192.87 156.44 195.53 158.77 C197.2 160.21 197.2 160.21 200 162 C200 162.66 200 163.32 200 164 C200.99 164 201.98 164 203 164 C203.33 164.66 203.66 165.32 204 166 C328.41 166 452.82 166 581 166 C581 166.33 581 166.66 581 167 C456.92 167.33 332.84 167.66 205 168 C204.67 193.74 204.34 219.48 204 246 C200.7 247.98 197.4 249.96 194 252 C191.84 253.45 189.69 254.93 187.56 256.44 C180.17 261.63 172.6 266.48 164.81 271.06 C161.7 272.91 158.8 274.85 155.94 277.06 C153.36 279.05 150.81 280.72 147.94 282.25 C140.97 285.97 134.53 290.58 128 295 C125 297 125 297 122 297 C122 297.66 122 298.32 122 299 C120.59 300.08 120.59 300.08 118.59 301.25 C117.85 301.69 117.12 302.13 116.36 302.58 C115.56 303.05 114.76 303.52 113.94 304 C107.99 307.56 102.11 311.17 96.38 315.06 C91.25 318.53 86.07 321.87 80.81 325.12 C75.06 328.69 69.41 332.36 63.8 336.13 C59.25 339.17 54.62 342.08 50 345 C48.06 346.23 46.12 347.46 44.19 348.69 C43.28 349.26 42.38 349.83 41.45 350.42 C39.43 351.72 37.46 353.06 35.5 354.44 C33 356 33 356 30 356 C29.67 356.99 29.34 357.98 29 359 C27.11 360.25 27.11 360.25 24.75 361.44 C22.09 362.84 19.86 364.12 17.5 366 C14.56 368.35 11.46 370.04 8.16 371.83 C5.73 373.15 3.36 374.55 1 376 C-1.78 373.22 -1.33 370.63 -1.37 366.91 C-1.39 365.81 -1.39 365.81 -1.41 364.69 C-1.46 362.27 -1.49 359.85 -1.51 357.43 C-1.52 356.6 -1.53 355.77 -1.54 354.92 C-1.59 350.53 -1.62 346.15 -1.65 341.76 C-1.67 337.24 -1.75 332.72 -1.84 328.2 C-1.9 324.72 -1.92 321.23 -1.93 317.75 C-1.94 316.09 -1.97 314.42 -2.01 312.75 C-2.33 299.73 -2.33 299.73 0.94 295.47 C3.22 293.67 5.42 292.32 8 291 C9.2 290.19 10.39 289.36 11.56 288.52 C12.71 287.76 13.85 287 15 286.25 C15.63 285.84 16.26 285.42 16.9 284.99 C28.2 277.55 39.58 270.24 51 263 C60.4 257.03 69.76 251.01 79.12 244.99 C80.18 244.31 81.23 243.63 82.31 242.94 C82.86 242.59 83.4 242.24 83.96 241.87 C88.01 239.27 92.07 236.68 96.12 234.09 C97.22 233.38 98.32 232.68 99.46 231.96 C101.65 230.56 103.84 229.16 106.03 227.76 C111.44 224.31 116.81 220.81 122.13 217.24 C124.28 215.81 126.46 214.48 128.69 213.19 C135.24 209.31 141.61 205.14 148 201 C146.21 196.84 143.77 195.46 140 193 C140 192.34 140 191.68 140 191 C139.24 190.71 138.47 190.42 137.69 190.12 C135 189 135 189 132 187 C132 186.34 132 185.68 132 185 C131.44 184.73 130.89 184.46 130.31 184.19 C127.79 182.89 125.36 181.58 123 180 C123 179.34 123 178.68 123 178 C122.43 177.74 121.85 177.47 121.26 177.2 C118.86 175.93 116.92 174.46 114.81 172.75 C111.06 169.77 107.2 167.1 103.14 164.55 C101 163 101 163 98.69 160.64 C95.04 157.06 90.95 154.35 86.73 151.49 C85.12 150.37 83.56 149.19 82 148 C82 147.34 82 146.68 82 146 C81.26 145.73 80.51 145.46 79.75 145.19 C77.11 144.05 75.14 142.91 73 141 C73 140.34 73 139.68 73 139 C72.01 138.67 71.02 138.34 70 138 C70 137.34 70 136.68 70 136 C69.48 135.94 68.95 135.87 68.41 135.81 C64.9 134.63 62.29 132.35 59.44 130.06 C54.81 126.4 54.81 126.4 50 123 C50 122.34 50 121.68 50 121 C49.16 120.6 49.16 120.6 48.31 120.19 C45.79 118.89 43.36 117.58 41 116 C41 115.34 41 114.68 41 114 C40.32 113.79 39.65 113.57 38.95 113.35 C35.06 111.57 32.09 109.09 28.81 106.38 C28.15 105.84 27.48 105.3 26.8 104.74 C24.86 103.16 22.93 101.58 21 100 C14.86 95.01 8.66 90.26 2.15 85.76 C0 84 0 84 -1 81 C-1.06 78.4 -1.07 75.82 -1.02 73.22 C-1.01 72.43 -1 71.64 -0.99 70.83 C-0.96 68.21 -0.92 65.6 -0.88 62.99 C-0.85 61.18 -0.83 59.36 -0.81 57.55 C-0.74 52.78 -0.68 48.01 -0.61 43.25 C-0.53 38.38 -0.47 33.51 -0.4 28.65 C-0.28 19.1 -0.14 9.55 0 0 Z " fill="#CEEFF5" transform="translate(214,116)"/>
<path d="M0 0 C-0.01 0.87 -0.01 0.87 -0.02 1.76 C-0.13 17.18 0.05 32.57 0.37 47.98 C0.42 50.04 0.46 52.1 0.5 54.15 C0.55 57.07 0.62 59.99 0.68 62.91 C0.7 63.8 0.72 64.69 0.73 65.6 C0.72 69.94 0.72 69.94 2 74 C2.96 73.31 2.96 73.31 3.94 72.61 C4.81 72 5.67 71.38 6.56 70.75 C7.41 70.15 8.26 69.54 9.13 68.92 C11.74 67.18 14.39 65.61 17.13 64.07 C20.5 62.14 23.77 60.06 27.06 58 C28.08 57.36 28.08 57.36 29.13 56.71 C33.94 53.7 38.69 50.61 43.34 47.37 C44.06 46.87 44.77 46.38 45.5 45.88 C46.21 45.38 46.92 44.88 47.66 44.37 C50.47 42.73 52.8 41.65 56 41 C58.57 42.2 58.57 42.2 61.12 44.25 C62.08 45 63.03 45.75 64.01 46.52 C65 47.34 65.98 48.16 67 49 C67.99 49.81 68.97 50.62 69.99 51.45 C72.01 53.12 74.03 54.81 76.04 56.5 C78.81 58.84 81.62 61.15 84.44 63.44 C88.44 66.7 92.38 70.02 96.31 73.38 C101.36 77.68 106.53 81.8 111.77 85.87 C116.32 89.43 120.72 93.12 125.11 96.88 C128.97 100.17 132.93 103.33 136.94 106.44 C142.45 110.71 147.76 115.17 153.04 119.73 C157.04 123.19 161.1 126.54 165.25 129.82 C174.67 137.29 183.97 144.92 193.17 152.65 C195.12 154.27 197.09 155.87 199.08 157.44 C200.06 158.22 201.05 159.01 202.06 159.81 C202.94 160.5 203.82 161.19 204.72 161.89 C208.35 165.25 209.88 167.72 210.36 172.71 C210.37 174.17 210.36 175.63 210.34 177.09 C210.34 177.9 210.34 178.7 210.34 179.52 C210.34 182.16 210.32 184.79 210.29 187.43 C210.29 189.26 210.28 191.09 210.28 192.92 C210.27 197.73 210.24 202.54 210.21 207.36 C210.18 212.27 210.16 217.18 210.15 222.1 C210.11 231.73 210.06 241.37 210 251 C205.35 248.77 201.6 246.21 197.75 242.81 C196.6 241.82 195.45 240.82 194.3 239.83 C193.74 239.35 193.17 238.86 192.6 238.36 C190.44 236.52 188.23 234.76 186 233 C180.45 228.6 175.06 224.01 169.67 219.42 C166.95 217.11 164.23 214.81 161.5 212.5 C158.21 209.72 154.92 206.94 151.64 204.14 C146.01 199.35 140.32 194.62 134.52 190.02 C131.15 187.32 127.84 184.55 124.52 181.77 C121.27 179.05 117.99 176.36 114.69 173.69 C110.27 170.09 105.97 166.38 101.69 162.62 C96.23 157.85 90.65 153.31 84.92 148.88 C80.62 145.55 76.61 141.98 72.61 138.3 C69.6 135.65 66.48 133.2 63.31 130.75 C56.25 125.28 49.53 119.46 42.81 113.58 C33.43 105.41 23.81 97.53 14.15 89.69 C12.29 88.17 10.44 86.65 8.59 85.12 C6.95 83.77 5.27 82.46 3.57 81.2 C2.84 80.64 2.12 80.08 1.38 79.5 C0.74 79.04 0.11 78.57 -0.54 78.09 C-5.16 71.47 -3.13 59.55 -3.1 51.68 C-3.1 50.22 -3.09 48.75 -3.09 47.28 C-3.09 43.45 -3.08 39.62 -3.07 35.79 C-3.06 31.87 -3.05 27.94 -3.05 24.02 C-3.04 16.35 -3.02 8.67 -3 1 C-1 0 -1 0 0 0 Z " fill="#020035" transform="translate(4,129)"/>
<path d="M0 0 C3.94 1.96 6.93 4.62 10.12 7.62 C13.83 11.05 17.57 14.34 21.5 17.5 C25.33 20.59 29.01 23.79 32.62 27.12 C40.51 34.81 40.51 34.81 50 40 C51.75 41.81 51.75 41.81 53 44 C52.92 45.93 52.92 45.93 52 48 C49.63 49.68 49.63 49.68 46.56 51.31 C42.53 53.55 38.68 55.82 34.94 58.5 C28.12 63.38 21.04 67.81 13.81 72.06 C10.7 73.91 7.8 75.85 4.94 78.06 C2.36 80.05 -0.19 81.72 -3.06 83.25 C-10.03 86.97 -16.47 91.58 -23 96 C-26 98 -26 98 -29 98 C-29 98.66 -29 99.32 -29 100 C-30.41 101.08 -30.41 101.08 -32.41 102.25 C-33.15 102.69 -33.88 103.13 -34.64 103.58 C-35.44 104.05 -36.24 104.52 -37.06 105 C-43.01 108.56 -48.89 112.17 -54.62 116.06 C-59.75 119.53 -64.93 122.87 -70.19 126.12 C-75.94 129.69 -81.59 133.36 -87.2 137.13 C-91.75 140.17 -96.38 143.08 -101 146 C-102.94 147.23 -104.88 148.46 -106.81 149.69 C-107.72 150.26 -108.62 150.83 -109.55 151.42 C-111.57 152.72 -113.54 154.06 -115.5 155.44 C-118 157 -118 157 -121 157 C-121.33 157.99 -121.66 158.98 -122 160 C-123.89 161.25 -123.89 161.25 -126.25 162.44 C-128.91 163.84 -131.14 165.12 -133.5 167 C-136.44 169.35 -139.54 171.04 -142.84 172.83 C-145.27 174.15 -147.64 175.55 -150 177 C-152.78 174.22 -152.33 171.63 -152.37 167.91 C-152.38 167.18 -152.4 166.45 -152.41 165.69 C-152.46 163.27 -152.49 160.85 -152.51 158.43 C-152.52 157.6 -152.53 156.77 -152.54 155.92 C-152.59 151.53 -152.62 147.15 -152.65 142.76 C-152.67 138.24 -152.75 133.72 -152.84 129.2 C-152.9 125.72 -152.92 122.23 -152.93 118.75 C-152.94 117.09 -152.97 115.42 -153.01 113.75 C-153.33 100.73 -153.33 100.73 -150.06 96.47 C-147.78 94.67 -145.58 93.32 -143 92 C-141.8 91.19 -140.61 90.36 -139.44 89.52 C-138.29 88.76 -137.15 88 -136 87.25 C-135.37 86.84 -134.74 86.42 -134.1 85.99 C-122.8 78.55 -111.42 71.24 -100 64 C-90.6 58.03 -81.24 52.01 -71.88 45.99 C-70.82 45.31 -69.77 44.63 -68.69 43.94 C-67.87 43.41 -67.87 43.41 -67.04 42.87 C-62.99 40.27 -58.93 37.68 -54.88 35.09 C-53.78 34.38 -52.68 33.68 -51.54 32.96 C-49.35 31.56 -47.16 30.16 -44.97 28.76 C-39.6 25.33 -34.27 21.87 -28.99 18.31 C-26.82 16.88 -24.61 15.56 -22.38 14.25 C-17.12 11.14 -12.06 7.75 -7 4.34 C-2.18 1.09 -2.18 1.09 0 0 Z " fill="#017CFA" transform="translate(365,315)"/>
<path d="M0 0 C10.37 7.87 19.37 18.85 22.3 31.75 C22.75 35.69 22.83 39.59 22.8 43.56 C22.8 44.62 22.79 45.68 22.79 46.78 C22.49 59.9 17.78 68.75 8.93 78.31 C8.06 79.11 7.19 79.92 6.3 80.75 C5.79 81.29 5.27 81.83 4.74 82.39 C-5.32 92.33 -16.7 94.34 -30.32 94.43 C-47.1 94.21 -57.75 89.54 -70.39 78.37 C-71.15 77.5 -71.91 76.64 -72.7 75.75 C-73.34 75.05 -73.97 74.36 -74.63 73.64 C-84.63 62.12 -85.95 49.97 -84.97 35.19 C-83.5 21.97 -75.05 11.08 -65.22 2.71 C-46.94 -11.56 -19.43 -12.75 0 0 Z " fill="#3B96FA" transform="translate(139.69921875,387.25390625)"/>
<path d="M0 0 C10.51 8.56 18.55 21.36 20 35 C20.42 48.26 17.83 60.51 9 70.88 C-0.59 81.04 -11.41 88.76 -25.89 89.3 C-44.43 89.51 -57.62 85.82 -71.85 73.54 C-82.59 62.44 -84.5 49.73 -84.27 35 C-84.05 29.05 -82.84 24.25 -80 19 C-79.25 17.6 -79.25 17.6 -78.49 16.18 C-71.11 3.58 -59.71 -4.77 -45.73 -8.62 C-30.02 -12.28 -12.99 -9.97 0 0 Z " fill="#000A5D" transform="translate(342,39)"/>
<path d="M0 0 C0.5 19.8 0.5 19.8 1 40 C1.66 40 2.32 40 3 40 C3.6 39.24 4.2 38.47 4.81 37.69 C7.57 34.3 9.71 32.31 14.14 31.71 C19.08 31.53 21.9 32.04 26 35 C27.91 37.16 27.91 37.16 29.62 39.62 C30.19 40.42 30.76 41.22 31.35 42.04 C35.43 49.36 36.48 56.13 36.38 64.44 C36.39 65.31 36.4 66.19 36.41 67.1 C36.36 78.45 33.09 86.95 25.04 94.95 C20.46 99.13 16.19 102.88 9.75 103.12 C8.84 103.08 7.93 103.04 7 103 C6.01 103.5 6.01 103.5 5 104 C3 104.04 1 104.04 -1 104 C0.49 103.01 0.49 103.01 2 102 C0.51 101.5 0.51 101.5 -1 101 C-1 100.34 -1 99.68 -1 99 C-1.74 98.73 -2.49 98.46 -3.25 98.19 C-7.89 96.18 -7.89 96.18 -10 94 C-10.4 91.21 -10.54 88.81 -10.51 86.01 C-10.52 85.2 -10.53 84.39 -10.54 83.55 C-10.56 80.86 -10.55 78.16 -10.54 75.47 C-10.55 73.6 -10.56 71.73 -10.57 69.86 C-10.61 64.94 -10.62 60.01 -10.62 55.09 C-10.63 47.21 -10.67 39.33 -10.71 31.45 C-10.73 28.69 -10.73 25.94 -10.72 23.18 C-10.73 21.49 -10.74 19.81 -10.74 18.12 C-10.74 16.97 -10.74 16.97 -10.73 15.8 C-10.76 12.04 -10.9 9.18 -13 6 C-14.32 6.33 -15.64 6.66 -17 7 C-16 4 -16 4 -13.42 2.58 C-12.35 2.14 -11.29 1.7 -10.19 1.25 C-9.13 0.8 -8.07 0.35 -6.98 -0.11 C-4 -1 -4 -1 0 0 Z " fill="#000A5D" transform="translate(987,179)"/>
<path d="M0 0 C5.23 -0.1 10.46 -0.17 15.69 -0.22 C17.46 -0.24 19.24 -0.27 21.01 -0.3 C41.78 -0.7 41.78 -0.7 50.81 6.12 C57.04 14.3 60.1 22.74 59 33 C57.59 37.73 55.74 41.9 53 46 C52.34 46 51.68 46 51 46 C51 46.66 51 47.32 51 48 C45.53 51.26 41.7 53.15 35.25 53.12 C34.45 53.13 33.65 53.13 32.83 53.13 C30.46 53.02 28.18 52.79 25.82 52.49 C24.56 52.33 23.3 52.17 22 52 C22.07 57.04 22.16 62.07 22.26 67.11 C22.3 68.82 22.32 70.53 22.35 72.24 C22.38 74.71 22.43 77.17 22.49 79.64 C22.49 80.4 22.5 81.16 22.51 81.94 C22.63 86.43 23.14 89.48 26 93 C27.49 93.5 27.49 93.5 29 94 C29 94.66 29 95.32 29 96 C30.32 96.33 31.64 96.66 33 97 C22.11 97 11.22 97 0 97 C4 94 4 94 6.12 93.25 C9.16 91.23 9.2 88.45 10 85 C10.18 82.58 10.27 80.16 10.27 77.74 C10.28 77.05 10.28 76.36 10.29 75.65 C10.3 73.4 10.3 71.14 10.3 68.88 C10.3 67.3 10.31 65.72 10.31 64.13 C10.32 60.82 10.32 57.51 10.32 54.2 C10.31 49.98 10.33 45.76 10.35 41.54 C10.36 38.27 10.37 35.01 10.36 31.74 C10.36 30.18 10.37 28.63 10.38 27.07 C10.48 15.21 10.48 15.21 7 4 C4.65 2.39 2.79 1.79 0 1 C0 0.67 0 0.34 0 0 Z " fill="#000A5C" transform="translate(667,182)"/>
<path d="M0 0 C1.9 0.21 1.9 0.21 4 1 C4.94 3 4.94 3 5.56 5.56 C6.54 9.47 7.78 13.16 9.22 16.92 C10.47 20.25 11.58 23.62 12.69 27 C13.21 28.59 13.74 30.18 14.27 31.77 C14.55 32.62 14.83 33.46 15.12 34.33 C16.04 37.11 16.96 39.89 17.89 42.66 C18.21 43.64 18.54 44.61 18.87 45.62 C19.54 47.63 20.22 49.64 20.89 51.66 C22.66 56.96 24.41 62.26 26.11 67.59 C26.46 68.66 26.81 69.73 27.17 70.84 C27.83 72.89 28.48 74.93 29.12 76.98 C30.98 82.71 33.03 88.37 37 93 C38.49 93.5 38.49 93.5 40 94 C40.33 94.66 40.66 95.32 41 96 C42.49 96.99 42.49 96.99 44 98 C34.1 98 24.2 98 14 98 C15 95 15 95 17.06 93.81 C18.02 93.41 18.02 93.41 19 93 C19.31 86.26 18.48 81.27 16.06 75 C15.78 74.24 15.51 73.48 15.22 72.69 C14.08 69.07 14.08 69.07 12 66 C9.93 65.84 7.85 65.75 5.78 65.68 C4.52 65.64 3.26 65.6 1.96 65.56 C0.62 65.52 -0.72 65.48 -2.06 65.44 C-3.41 65.39 -4.75 65.35 -6.1 65.31 C-9.4 65.2 -12.7 65.1 -16 65 C-16.2 65.66 -16.39 66.32 -16.6 67.01 C-17.91 71.42 -19.26 75.81 -20.69 80.19 C-21.88 84.3 -22.84 87.72 -22 92 C-20.29 93.64 -18.56 94.84 -16.53 96.05 C-16.03 96.37 -15.52 96.68 -15 97 C-15 97.33 -15 97.66 -15 98 C-22.59 98 -30.18 98 -38 98 C-38 97.01 -38 96.02 -38 95 C-37.22 94.94 -36.43 94.88 -35.62 94.81 C-34.33 94.41 -34.33 94.41 -33 94 C-31.91 91.73 -31.91 91.73 -31 89 C-30.22 87.17 -29.44 85.33 -28.66 83.5 C-25.98 77.09 -23.7 70.58 -21.5 64 C-20.89 62.2 -20.89 62.2 -20.27 60.37 C-19.2 57.22 -18.14 54.07 -17.08 50.92 C-16.01 47.73 -14.94 44.55 -13.86 41.38 C-10.22 30.59 -6.59 19.8 -3 9 C-2.42 7.25 -1.83 5.5 -1.25 3.75 C-0.63 1.89 -0.63 1.89 0 0 Z " fill="#010B5D" transform="translate(892,181)"/>
<path d="M0 0 C1.67 -0.02 1.67 -0.02 3.37 -0.04 C8.7 0.34 8.7 0.34 11.56 2.19 C16.53 8.7 17.26 14.58 17.05 22.57 C17.04 24.15 17.04 24.15 17.03 25.76 C17 29.09 16.94 32.42 16.88 35.75 C16.85 38.02 16.83 40.29 16.81 42.56 C16.75 48.11 16.67 53.65 16.56 59.19 C21.18 60.23 21.18 60.23 25.56 59.19 C24.13 64.2 21.58 66.13 17.56 69.19 C18.55 70.67 18.55 70.67 19.56 72.19 C11.26 70.87 11.26 70.87 8.62 68.31 C7.09 65.25 7.09 65.25 5.56 62.19 C4.86 62.8 4.86 62.8 4.14 63.43 C3.51 63.97 2.89 64.51 2.25 65.06 C1.64 65.6 1.02 66.13 0.39 66.68 C-1.44 68.19 -1.44 68.19 -4.44 70.19 C-2.13 70.52 0.18 70.85 2.56 71.19 C2.56 71.52 2.56 71.85 2.56 72.19 C-38.36 72.19 -79.28 72.19 -121.44 72.19 C-121.44 71.86 -121.44 71.53 -121.44 71.19 C-86.13 70.86 -50.82 70.53 -14.44 70.19 C-16.09 68.54 -17.74 66.89 -19.44 65.19 C-22.99 59.4 -22.89 53.03 -21.44 46.56 C-17.86 35.13 -7.16 30.71 2.81 25.48 C5.56 24.19 5.56 24.19 7.56 24.19 C6.85 13.69 6.85 13.69 1.56 5.19 C-1.5 4.72 -4.36 4.83 -7.44 5.19 C-7.62 6.31 -7.8 7.43 -7.99 8.58 C-8.24 10.05 -8.5 11.53 -8.75 13 C-8.87 13.74 -8.99 14.48 -9.11 15.24 C-10.29 21.96 -10.29 21.96 -13.44 24.19 C-18.31 22.31 -18.31 22.31 -19.44 21.19 C-20.37 15.09 -19.34 10.86 -15.8 5.85 C-11.32 0.39 -6.78 0.04 0 0 Z " fill="#030E5F" transform="translate(1197.4375,210.8125)"/>
<path d="M0 0 C4.08 3.97 6.19 7.85 6.5 13.54 C6.49 14.35 6.49 15.16 6.49 15.99 C6.49 17.37 6.49 17.37 6.49 18.78 C6.48 19.76 6.48 20.75 6.47 21.77 C6.47 22.78 6.47 23.8 6.47 24.84 C6.46 28.08 6.45 31.32 6.44 34.56 C6.43 36.76 6.43 38.96 6.42 41.16 C6.41 46.54 6.4 51.93 6.38 57.31 C7.04 57.31 7.69 57.31 8.38 57.31 C8.38 57.97 8.38 58.63 8.38 59.31 C11.02 58.65 13.65 57.99 16.38 57.31 C9.63 66.87 9.63 66.87 5.38 69.31 C2.25 69.56 2.25 69.56 -0.62 68.31 C-2.06 65.76 -2.89 63.14 -3.62 60.31 C-7.53 61.97 -10.41 64.58 -13.62 67.31 C-19.3 71.1 -25.8 70.45 -32.4 70.41 C-33.32 70.41 -34.25 70.41 -35.2 70.41 C-38.13 70.4 -41.07 70.39 -44 70.38 C-46 70.37 -47.99 70.37 -49.99 70.36 C-54.87 70.35 -59.75 70.33 -64.62 70.31 C-64.62 69.98 -64.62 69.65 -64.62 69.31 C-51.42 68.98 -38.22 68.65 -24.62 68.31 C-26.28 66.99 -27.92 65.67 -29.62 64.31 C-33.15 57.8 -33.48 50.87 -31.56 43.81 C-27.65 33.37 -17.63 29.17 -8.32 24.25 C-6.71 23.36 -5.16 22.34 -3.62 21.31 C-3.71 19.39 -3.82 17.48 -3.94 15.56 C-4 14.5 -4.05 13.43 -4.11 12.33 C-4.66 9.1 -5.56 7.78 -7.62 5.31 C-7.62 4.65 -7.62 3.99 -7.62 3.31 C-9.51 3.22 -9.51 3.22 -11.44 3.12 C-12.15 3.09 -12.85 3.06 -13.58 3.02 C-15.67 3.17 -15.67 3.17 -17.32 4.42 C-19.18 7.13 -19.27 9.57 -19.62 12.81 C-20.28 18.89 -20.28 18.89 -22.19 21.22 C-22.66 21.58 -23.14 21.94 -23.62 22.31 C-25.61 21.65 -27.59 20.99 -29.62 20.31 C-30.63 15.28 -30.82 12 -28.62 7.31 C-22.07 -2.24 -10.6 -4.94 0 0 Z " fill="#010C5E" transform="translate(1064.625,212.6875)"/>
<path d="M0 0 C7.28 -0.02 14.57 -0.04 21.85 -0.05 C25.23 -0.06 28.62 -0.06 32 -0.08 C35.88 -0.09 39.77 -0.09 43.65 -0.1 C44.87 -0.1 46.09 -0.11 47.35 -0.11 C49.03 -0.11 49.03 -0.11 50.75 -0.11 C51.74 -0.12 52.73 -0.12 53.75 -0.12 C56 0 56 0 57 1 C57.16 2.49 57.25 3.98 57.32 5.47 C57.36 6.37 57.4 7.27 57.44 8.2 C57.48 9.14 57.52 10.09 57.56 11.06 C57.61 12.01 57.65 12.96 57.69 13.94 C57.8 16.29 57.9 18.65 58 21 C55 20 55 20 53.57 17.38 C52.61 15.22 51.65 13.05 50.7 10.88 C48.67 7.44 47.73 6.44 44 5 C40.23 4.51 36.48 4.4 32.69 4.31 C29.16 4.21 25.63 4.11 22 4 C22.5 23.8 22.5 23.8 23 44 C28.61 44 34.22 44 40 44 C40 43.34 40 42.68 40 42 C40.99 41.34 41.98 40.68 43 40 C43.79 37.81 43.79 37.81 44.19 35.38 C44.35 34.56 44.5 33.74 44.67 32.9 C44.78 32.27 44.89 31.65 45 31 C45.99 31.33 46.98 31.66 48 32 C48 41.57 48 51.14 48 61 C47.34 61 46.68 61 46 61 C45.33 59.54 44.66 58.08 44 56.62 C43.63 55.81 43.26 55 42.88 54.16 C42 52 42 52 42 50 C38.15 48.75 34.31 48.85 30.31 48.88 C29.62 48.87 28.93 48.87 28.22 48.86 C24.83 48.57 24.83 48.57 22 50 C21.98 53.03 22.03 56.04 22.12 59.07 C22.14 59.98 22.17 60.88 22.19 61.82 C22.27 64.73 22.35 67.65 22.44 70.56 C22.49 72.53 22.54 74.5 22.6 76.47 C22.73 81.32 22.86 86.16 23 91 C24.98 91.99 26.96 92.98 29 94 C29 94.66 29 95.32 29 96 C30.32 96.33 31.64 96.66 33 97 C22.11 97 11.22 97 0 97 C1.98 96.5 1.98 96.5 4 96 C4 95.34 4 94.68 4 94 C4.96 93.6 4.96 93.6 5.94 93.19 C8.33 92.11 8.33 92.11 9 89 C9.1 86.46 9.15 83.95 9.15 81.41 C9.15 80.64 9.15 79.87 9.16 79.07 C9.16 76.52 9.17 73.97 9.17 71.42 C9.17 69.64 9.17 67.87 9.18 66.09 C9.18 62.37 9.19 58.65 9.19 54.92 C9.19 50.16 9.2 45.39 9.22 40.63 C9.23 36.96 9.23 33.29 9.23 29.63 C9.23 27.87 9.23 26.11 9.24 24.36 C9.25 21.9 9.25 19.44 9.24 16.98 C9.25 15.89 9.25 15.89 9.26 14.79 C9.23 10.49 8.58 7 7 3 C4.69 2.67 2.38 2.34 0 2 C0 1.34 0 0.68 0 0 Z " fill="#05105F" transform="translate(511,182)"/>
<path d="M0 0 C0.99 3.3 1.98 6.6 3 10 C3.78 9.01 4.57 8.02 5.38 7 C6.67 5.51 6.67 5.51 8 4 C8.66 4 9.32 4 10 4 C10 3.34 10 2.68 10 2 C14.55 -0.57 18.9 -1.32 24 0 C29.07 4.68 31.6 11.52 32.21 18.3 C32.31 20.94 32.35 23.57 32.38 26.2 C32.4 27.16 32.41 28.12 32.43 29.11 C32.48 32.16 32.52 35.2 32.56 38.25 C32.61 41.31 32.65 44.37 32.71 47.43 C32.74 49.33 32.76 51.23 32.79 53.13 C32.8 53.99 32.81 54.85 32.83 55.73 C32.84 56.49 32.85 57.24 32.86 58.02 C32.93 60.21 32.93 60.21 34 63 C36 64.21 36 64.21 38 65 C38 65.66 38 66.32 38 67 C38.99 67.5 38.99 67.5 40 68 C31.75 68 23.5 68 15 68 C16.52 66.48 18.04 64.96 19.62 63.5 C22.9 59.93 22.16 55.17 22.17 50.64 C22.17 49.82 22.17 49 22.18 48.15 C22.18 46.41 22.19 44.66 22.19 42.92 C22.19 40.27 22.21 37.63 22.22 34.98 C22.23 33.28 22.23 31.59 22.23 29.89 C22.24 29.1 22.24 28.32 22.25 27.51 C22.22 20.83 20.61 15.15 18 9 C12.14 9.4 8.71 10.19 4 14 C1.87 17.2 1.75 17.99 1.77 21.66 C1.77 22.6 1.77 23.54 1.77 24.51 C1.78 25.52 1.79 26.53 1.8 27.57 C1.81 29.13 1.81 29.13 1.81 30.72 C1.82 34.04 1.85 37.37 1.88 40.69 C1.89 42.94 1.89 45.19 1.9 47.44 C1.92 52.96 1.96 58.48 2 64 C3.32 64.33 4.64 64.66 6 65 C6 65.66 6 66.32 6 67 C7.48 67.5 7.48 67.5 9 68 C0.75 68 -7.5 68 -16 68 C-16 67.34 -16 66.68 -16 66 C-15.02 65.53 -14.05 65.07 -13.04 64.59 C-9.85 62.39 -9.85 62.39 -9.44 59.69 C-9.25 56.63 -9.25 53.62 -9.31 50.56 C-9.31 49.44 -9.31 48.32 -9.31 47.17 C-9.32 44.8 -9.35 42.44 -9.38 40.07 C-9.44 36.45 -9.44 32.82 -9.44 29.2 C-9.46 26.9 -9.48 24.6 -9.5 22.31 C-9.5 20.68 -9.5 20.68 -9.51 19.01 C-9.53 18.01 -9.54 17 -9.56 15.96 C-9.58 14.63 -9.58 14.63 -9.6 13.27 C-10.08 10.52 -10.8 9.66 -13 8 C-13.99 7.67 -14.98 7.34 -16 7 C-13.63 4.28 -11.35 3.11 -8 1.81 C-6.7 1.3 -6.7 1.3 -5.38 0.77 C-3 0 -3 0 0 0 Z " fill="#000A5B" transform="translate(1097,211)"/>
<path d="M0 0 C0.66 3.96 1.32 7.92 2 12 C2.66 10.35 3.32 8.7 4 7 C5.37 5.27 5.37 5.27 6.88 3.81 C7.37 3.32 7.86 2.84 8.37 2.33 C12.38 -0.94 15.82 -1.45 20.89 -1.3 C23 -1 23 -1 25.31 0.5 C31.48 9.64 32.13 17.99 32.11 28.79 C32.12 30.66 32.13 32.52 32.15 34.39 C32.17 37.3 32.19 40.21 32.18 43.12 C32.17 45.95 32.2 48.78 32.23 51.61 C32.22 52.47 32.21 53.34 32.19 54.24 C32.22 58.8 32.22 58.8 34.39 62.66 C36.21 64.2 36.21 64.2 39 66 C39 66.33 39 66.66 39 67 C31.08 67 23.16 67 15 67 C15.66 66.67 16.32 66.34 17 66 C17 65.34 17 64.68 17 64 C17.65 63.5 18.3 62.99 18.97 62.47 C22.06 58.71 21.56 55.17 21.5 50.45 C21.5 49.05 21.5 49.05 21.5 47.62 C21.5 45.65 21.49 43.68 21.47 41.71 C21.44 38.71 21.45 35.71 21.46 32.71 C21.45 30.79 21.44 28.87 21.43 26.95 C21.44 26.06 21.44 25.17 21.44 24.25 C21.36 18.75 20.58 14.87 18 10 C16.42 8.17 16.42 8.17 14 8 C8.79 8.98 5.46 10.97 2.07 15.14 C0.06 18.63 0.37 22.23 0.48 26.16 C0.48 27.46 0.48 27.46 0.49 28.79 C0.51 31.55 0.57 34.3 0.62 37.06 C0.64 38.92 0.66 40.78 0.67 42.63 C0.44 52.42 0.44 52.42 2 62 C3.97 63.36 3.97 63.36 6 64 C6 64.66 6 65.32 6 66 C7.49 66.5 7.49 66.5 9 67 C0.75 67 -7.5 67 -16 67 C-16.33 66.34 -16.66 65.68 -17 65 C-16.03 64.59 -15.06 64.18 -14.06 63.75 C-10.92 62.39 -10.92 62.39 -10.32 60.18 C-9.98 57.89 -9.87 55.73 -9.85 53.42 C-9.85 52.52 -9.84 51.62 -9.84 50.69 C-9.83 49.72 -9.83 48.75 -9.83 47.76 C-9.83 46.76 -9.83 45.76 -9.82 44.72 C-9.82 42.61 -9.81 40.49 -9.81 38.37 C-9.81 35.14 -9.79 31.91 -9.78 28.68 C-9.77 26.63 -9.77 24.57 -9.77 22.51 C-9.76 21.55 -9.76 20.58 -9.75 19.59 C-9.76 14.65 -10.05 10.63 -12 6 C-13.65 6.33 -15.3 6.66 -17 7 C-16.34 6.67 -15.68 6.34 -15 6 C-15 5.34 -15 4.68 -15 4 C-13.26 3.13 -11.51 2.28 -9.75 1.44 C-8.78 0.96 -7.8 0.49 -6.8 -0 C-4 -1 -4 -1 0 0 Z " fill="#020C5D" transform="translate(626,212)"/>
<path d="M0 0 C6.53 4.42 9.83 13.84 11.5 21.22 C12.16 26.22 12.33 31.15 12.38 36.19 C12.4 37.58 12.4 37.58 12.42 38.99 C12.37 46.47 11.21 52.91 6.81 59.06 C3.76 61.16 1.7 61.69 -2.01 61.41 C-5.53 60.69 -7.38 59.44 -10 57 C-17.72 44.07 -18.99 26.57 -15.62 12.15 C-13.23 3.92 -9.11 -1.32 0 0 Z " fill="#F9FCFE" transform="translate(802,215)"/>
<path d="M0 0 C8.89 8.46 14.62 17.73 14.99 30.39 C15.03 43.48 12.1 53.7 2.94 63.45 C0.31 65.65 -2.33 67.03 -5.44 68.44 C-5.44 68.77 -5.44 69.1 -5.44 69.44 C-14.04 70.15 -19.45 67.93 -26.19 62.69 C-33.57 55.93 -35.61 45.81 -36.69 36.18 C-37.06 24.22 -32.99 12.64 -25.02 3.84 C-23.44 2.44 -23.44 2.44 -21.44 2.44 C-21.44 1.78 -21.44 1.12 -21.44 0.44 C-14.75 -2.67 -6.74 -3.06 0 0 Z M-21.44 7.44 C-27.88 19.43 -26.37 35.64 -23.44 48.44 C-21.57 54.27 -19.19 58.43 -14.44 62.44 C-11.21 64.05 -7.93 64.01 -4.44 63.44 C0.66 59.92 2.17 55.24 3.56 49.44 C3.96 45.82 3.99 42.26 3.94 38.62 C3.93 37.66 3.92 36.69 3.91 35.69 C3.65 23.46 0.94 13.78 -6.31 3.88 C-11.97 0.05 -17.51 2.49 -21.44 7.44 Z " fill="#010C5E" transform="translate(810.4375,212.5625)"/>
<path d="M0 0 C1.95 1.88 1.95 1.88 3.69 4.12 C4.56 5.21 4.56 5.21 5.45 6.32 C9 12.45 9.36 18.96 9.31 25.88 C9.31 26.66 9.3 27.45 9.3 28.26 C9.11 37.69 7.08 44.7 1 52 C-2 54 -2 54 -5.19 54 C-10.09 52.71 -13.57 50.77 -17 47 C-18.11 43.85 -18.06 40.93 -17.96 37.62 C-17.96 36.73 -17.96 35.84 -17.96 34.93 C-17.95 33.05 -17.92 31.18 -17.88 29.3 C-17.81 26.44 -17.82 23.58 -17.83 20.72 C-17.81 18.9 -17.79 17.07 -17.77 15.25 C-17.77 14.39 -17.77 13.54 -17.77 12.66 C-17.63 8.27 -17.42 6.52 -14.57 3 C-9.68 -0.8 -5.93 -3.12 0 0 Z " fill="#F9FCFE" transform="translate(1004,223)"/>
<path d="M0 0 C0.33 31.35 0.66 62.7 1 95 C2.32 95.66 3.64 96.32 5 97 C5 97.66 5 98.32 5 99 C6.49 99.5 6.49 99.5 8 100 C-0.25 100 -8.5 100 -17 100 C-17.33 99.34 -17.66 98.68 -18 98 C-17.03 97.57 -16.06 97.13 -15.06 96.69 C-11.72 95.3 -11.72 95.3 -11 92 C-10.91 89.31 -10.87 86.64 -10.89 83.95 C-10.89 83.13 -10.89 82.31 -10.89 81.46 C-10.89 78.75 -10.89 76.04 -10.9 73.33 C-10.9 71.45 -10.91 69.57 -10.91 67.69 C-10.91 62.75 -10.92 57.8 -10.93 52.85 C-10.94 47.81 -10.95 42.76 -10.95 37.71 C-10.96 27.81 -10.98 17.9 -11 8 C-11.66 8 -12.32 8 -13 8 C-13 7.34 -13 6.68 -13 6 C-14.32 6.33 -15.64 6.66 -17 7 C-17 6.01 -17 5.02 -17 4 C-15.11 3.13 -13.21 2.28 -11.31 1.44 C-10.26 0.96 -9.2 0.49 -8.11 -0 C-5 -1 -5 -1 0 0 Z " fill="#000A5C" transform="translate(958,179)"/>
<path d="M0 0 C4.54 2.46 7.17 5.76 10 10 C10.65 16.11 10.91 21.97 8.38 27.62 C3.51 32.49 0.45 34.26 -6.5 34.5 C-12.94 34.27 -16.16 32.96 -20.65 28.28 C-23.13 25.53 -24.82 23.55 -26 20 C-37.38 19.5 -37.38 19.5 -49 19 C-49 18.67 -49 18.34 -49 18 C-41.08 17.67 -33.16 17.34 -25 17 C-24.67 14.36 -24.34 11.72 -24 9 C-22.7 6.76 -22.7 6.76 -21.12 5.12 C-20.61 4.57 -20.1 4.02 -19.57 3.45 C-14.04 -1.64 -7.03 -0.98 0 0 Z " fill="#3C91F1" transform="translate(1267,264)"/>
<path d="M0 0 C0.66 2.31 1.32 4.62 2 7 C2.41 6.51 2.82 6.01 3.24 5.5 C3.78 4.86 4.32 4.22 4.88 3.56 C5.41 2.92 5.94 2.29 6.49 1.63 C8 0 8 0 10 -1 C12.33 -1.04 14.67 -1.04 17 -1 C19.95 3.52 19.95 3.52 21 6 C20.22 8.88 19.11 9.89 17 12 C14.18 11.98 14.18 11.98 10.88 11.62 C9.78 11.51 8.68 11.4 7.55 11.29 C6.29 11.15 6.29 11.15 5 11 C0.81 16.12 0.43 19.91 0.54 26.41 C0.54 27.31 0.54 28.2 0.54 29.12 C0.55 30.99 0.56 32.87 0.59 34.75 C0.62 37.62 0.63 40.49 0.63 43.37 C0.64 45.2 0.65 47.02 0.66 48.85 C0.67 49.71 0.67 50.57 0.67 51.45 C0.69 52.65 0.69 52.65 0.71 53.88 C0.72 54.58 0.72 55.28 0.73 56 C1.05 58.4 1.72 59.95 3 62 C4.97 63.38 6.97 64.72 9 66 C9 66.33 9 66.66 9 67 C0.09 67 -8.82 67 -18 67 C-17.5 66.01 -17.5 66.01 -17 65 C-16.34 65.33 -15.68 65.66 -15 66 C-15 65.34 -15 64.68 -15 64 C-13.68 63.34 -12.36 62.68 -11 62 C-11 44.51 -11 27.02 -11 9 C-12.32 8.34 -13.64 7.68 -15 7 C-15.66 6.67 -16.32 6.34 -17 6 C-12.83 1.38 -6.18 -2.39 0 0 Z " fill="#020C5E" transform="translate(750,212)"/>
<path d="M0 0 C5.5 2.94 7.94 8.33 10 14 C11.64 21.52 11.55 29.08 7.96 36.01 C5.32 40.07 2.73 42.52 -2 44 C-6.25 44.04 -9.4 43.4 -13 41 C-13.27 37.95 -13.35 35.1 -13.29 32.05 C-13.29 31.17 -13.28 30.28 -13.28 29.37 C-13.26 26.54 -13.23 23.71 -13.19 20.88 C-13.17 18.96 -13.16 17.04 -13.15 15.12 C-13.11 10.41 -13.06 5.71 -13 1 C-8.14 -1.03 -5.08 -1.38 0 0 Z " fill="#F9FCFE" transform="translate(702,187)"/>
<path d="M0 0 C1.05 3.15 1.16 5.45 1.21 8.76 C1.23 9.94 1.25 11.12 1.27 12.34 C1.28 13.61 1.3 14.89 1.32 16.2 C1.34 17.5 1.36 18.81 1.38 20.15 C1.43 23.62 1.48 27.09 1.53 30.56 C1.58 34.1 1.64 37.63 1.69 41.17 C1.8 48.12 1.9 55.06 2 62 C3.32 62.66 4.64 63.32 6 64 C6 64.66 6 65.32 6 66 C6.66 66.33 7.32 66.66 8 67 C0.08 67 -7.84 67 -16 67 C-16.33 66.34 -16.66 65.68 -17 65 C-16.22 64.81 -15.43 64.63 -14.62 64.44 C-11.7 63.21 -11.7 63.21 -10.85 59.94 C-9.81 55.8 -9.73 51.82 -9.77 47.57 C-9.77 46.79 -9.77 46 -9.77 45.19 C-9.77 43.53 -9.78 41.87 -9.79 40.21 C-9.81 37.71 -9.81 35.2 -9.81 32.69 C-9.51 19.16 -9.51 19.16 -12 6 C-13.65 6.33 -15.3 6.66 -17 7 C-16 4 -16 4 -13.42 2.58 C-12.35 2.14 -11.29 1.7 -10.19 1.25 C-9.13 0.8 -8.07 0.35 -6.98 -0.11 C-4.04 -0.99 -2.73 -1.35 0 0 Z " fill="#061160" transform="translate(596,212)"/>
<path d="M0 0 C0.01 0.72 0.02 1.44 0.03 2.17 C0.13 8.94 0.23 15.71 0.34 22.48 C0.39 25.96 0.45 29.44 0.5 32.92 C0.55 36.92 0.62 40.92 0.68 44.92 C0.7 46.17 0.72 47.42 0.73 48.7 C0.75 49.86 0.77 51.03 0.79 52.22 C0.82 53.75 0.82 53.75 0.84 55.32 C0.98 57.72 1.19 59.74 2 62 C3.98 63.28 3.98 63.28 6 64 C6 64.66 6 65.32 6 66 C6.66 66.33 7.32 66.66 8 67 C0.08 67 -7.84 67 -16 67 C-16.33 66.34 -16.66 65.68 -17 65 C-16.03 64.59 -15.06 64.18 -14.06 63.75 C-10.92 62.39 -10.92 62.39 -10.32 60.15 C-10 58 -9.87 55.98 -9.87 53.8 C-9.87 52.57 -9.87 52.57 -9.86 51.32 C-9.86 50.45 -9.87 49.57 -9.87 48.67 C-9.87 47.76 -9.87 46.85 -9.86 45.91 C-9.86 43.99 -9.87 42.06 -9.87 40.14 C-9.87 37.21 -9.87 34.28 -9.86 31.35 C-9.86 29.48 -9.87 27.6 -9.87 25.73 C-9.87 24.86 -9.86 23.99 -9.86 23.09 C-9.88 18.33 -9.95 13.67 -11 9 C-13.87 6.9 -13.87 6.9 -17 6 C-14.64 3.31 -12.36 2.08 -9.06 0.75 C-8.21 0.39 -7.35 0.04 -6.47 -0.33 C-3.78 -1.06 -2.62 -0.77 0 0 Z " fill="#00095B" transform="translate(1160,212)"/>
<path d="M0 0 C0.99 0.33 1.98 0.66 3 1 C4.28 3.81 4.28 3.81 5.5 7.44 C5.72 8.07 5.93 8.71 6.15 9.36 C7.64 13.77 9.02 18.21 10.3 22.68 C11.25 25.84 12.39 28.91 13.55 31.99 C14 34 14 34 13 38 C5.41 38 -2.18 38 -10 38 C-11.23 34.32 -10.62 33.09 -9.42 29.45 C-9.06 28.36 -8.71 27.27 -8.34 26.14 C-7.96 25 -7.58 23.86 -7.19 22.69 C-6.82 21.56 -6.45 20.43 -6.07 19.27 C-4.7 15.1 -3.31 10.94 -1.92 6.78 C-1.17 4.53 -0.53 2.31 0 0 Z " fill="#F7FBFD" transform="translate(889,204)"/>
<path d="M0 0 C0.2 3.87 0.33 7.75 0.44 11.62 C0.5 12.72 0.55 13.81 0.62 14.94 C0.78 22.89 0.78 22.89 -1.46 26.07 C-5.31 29.48 -8.7 31.29 -14 31 C-17.2 28.5 -18.71 26.86 -20 23 C-20.49 16.48 -18.82 12.92 -15.44 7.5 C-11.53 3.49 -5.7 -1.9 0 0 Z " fill="#F6FCFE" transform="translate(1062,241)"/>
<path d="M0 0 C0.23 3.85 0.37 7.7 0.5 11.56 C0.6 13.19 0.6 13.19 0.7 14.85 C0.89 22.72 0.89 22.72 -1.64 26.34 C-4.53 29.03 -6.56 30.84 -10.56 31.28 C-13.56 30.94 -15.58 29.91 -17.82 27.88 C-20.43 23.71 -19.75 18.67 -19 14 C-17.93 11.26 -16.74 9.4 -15 7 C-14.34 7 -13.68 7 -13 7 C-13 6.34 -13 5.68 -13 5 C-11.59 4.16 -10.17 3.33 -8.75 2.5 C-7.57 1.8 -7.57 1.8 -6.36 1.09 C-4 0 -4 0 0 0 Z " fill="#F9FCFE" transform="translate(1205,241)"/>
<path d="M0 0 C5.11 -0.02 10.22 -0.04 15.33 -0.05 C17.07 -0.06 18.8 -0.07 20.54 -0.08 C23.04 -0.09 25.53 -0.09 28.03 -0.1 C28.81 -0.1 29.59 -0.11 30.4 -0.11 C32.27 -0.11 34.13 -0.06 36 0 C37.58 1.58 37.22 3.28 37.32 5.47 C37.36 6.37 37.4 7.27 37.44 8.2 C37.48 9.14 37.52 10.09 37.56 11.06 C37.61 12.01 37.65 12.96 37.69 13.94 C37.8 16.29 37.9 18.65 38 21 C35 20 35 20 33.57 17.38 C32.61 15.22 31.65 13.05 30.7 10.88 C28.68 7.46 27.7 6.44 24 5 C20.4 4.52 16.82 4.4 13.19 4.31 C12.21 4.28 11.23 4.24 10.22 4.21 C7.81 4.13 5.41 4.06 3 4 C2.67 3.01 2.34 2.02 2 1 C1.34 0.67 0.68 0.34 0 0 Z " fill="#030E5F" transform="translate(531,182)"/>
<path d="M0 0 C0.05 8.93 0.08 17.85 0.1 26.78 C0.11 30.93 0.13 35.07 0.15 39.22 C0.17 43.22 0.18 47.22 0.19 51.22 C0.19 52.75 0.2 54.27 0.21 55.8 C0.23 57.94 0.23 60.07 0.23 62.21 C0.23 63.43 0.24 64.65 0.24 65.9 C0.01 68.86 -0.45 70.52 -2 73 C-2.82 68.7 -3.12 64.64 -3.11 60.26 C-3.11 59.62 -3.11 58.97 -3.11 58.31 C-3.11 56.2 -3.11 54.09 -3.1 51.98 C-3.1 50.51 -3.09 49.03 -3.09 47.56 C-3.09 43.71 -3.08 39.85 -3.07 35.99 C-3.06 32.05 -3.05 28.11 -3.05 24.17 C-3.04 16.45 -3.02 8.72 -3 1 C-1 0 -1 0 0 0 Z " fill="#2D4684" transform="translate(4,129)"/>
<path d="M0 0 C0.99 0.33 1.98 0.66 3 1 C3 10.57 3 20.14 3 30 C2.34 30 1.68 30 1 30 C0.33 28.54 -0.34 27.08 -1 25.62 C-1.37 24.81 -1.74 24 -2.12 23.16 C-3 21 -3 21 -3 19 C-6.63 18.34 -10.26 17.68 -14 17 C-14 16.01 -14 15.02 -14 14 C-14.66 13.67 -15.32 13.34 -16 13 C-12.37 13 -8.74 13 -5 13 C-5 12.34 -5 11.68 -5 11 C-4.01 10.34 -3.02 9.68 -2 9 C-1.21 6.81 -1.21 6.81 -0.81 4.38 C-0.65 3.56 -0.5 2.74 -0.33 1.9 C-0.22 1.27 -0.11 0.65 0 0 Z " fill="#010B5D" transform="translate(556,213)"/>
<path d="M0 0 C3.62 -0.19 3.62 -0.19 7 0 C9.09 3.4 9.42 6.04 9 10 C7.81 11.94 7.81 11.94 6 13 C2.52 12.74 0.95 11.97 -2 10 C-2.4 5.65 -2.45 3.68 0 0 Z " fill="#000A5D" transform="translate(588,178)"/>
<path d="M0 0 C2.53 2.27 2.96 3.68 3.38 7.06 C3 10 3 10 1.81 11.94 C0 13 0 13 -2.5 12.81 C-5 12 -5 12 -8 10 C-8.65 4.06 -8.65 4.06 -6.81 1.06 C-4.31 -0.4 -2.85 -0.5 0 0 Z " fill="#000A5D" transform="translate(1158,178)"/>
<path d="M0 0 C3.46 -0.03 6.92 -0.05 10.38 -0.06 C11.36 -0.07 12.34 -0.08 13.36 -0.09 C14.77 -0.09 14.77 -0.09 16.21 -0.1 C17.51 -0.11 17.51 -0.11 18.85 -0.11 C21 0 21 0 23 1 C23 1.99 23 2.98 23 4 C15.08 4 7.16 4 -1 4 C-0.67 2.68 -0.34 1.36 0 0 Z " fill="#020035" transform="translate(879,242)"/>
<path d="M0 0 C3.62 -0.03 7.25 -0.05 10.88 -0.06 C12.42 -0.08 12.42 -0.08 14 -0.09 C14.99 -0.09 15.98 -0.09 16.99 -0.1 C18.36 -0.11 18.36 -0.11 19.75 -0.11 C22 0 22 0 24 1 C24 1.99 24 2.98 24 4 C17.07 4 10.14 4 3 4 C2.67 3.01 2.34 2.02 2 1 C1.34 0.67 0.68 0.34 0 0 Z " fill="#020035" transform="translate(531,182)"/>
<path d="M0 0 C0.06 3.4 0.09 6.79 0.12 10.19 C0.15 11.63 0.15 11.63 0.18 13.1 C0.18 14.03 0.19 14.96 0.2 15.92 C0.21 16.77 0.22 17.63 0.23 18.5 C-0.03 21.31 -0.84 23.45 -2 26 C-2.33 26 -2.66 26 -3 26 C-3 17.75 -3 9.5 -3 1 C-1 0 -1 0 0 0 Z " fill="#2A4A8D" transform="translate(4,129)"/>
<path d="M0 0 C2.97 1.12 5.33 2.22 8 4 C8 4.66 8 5.32 8 6 C8.66 6 9.32 6 10 6 C10 6.66 10 7.32 10 8 C10.64 8.29 11.28 8.58 11.94 8.88 C14 10 14 10 15 12 C11.26 10.37 8.38 8.02 5.25 5.44 C4.27 4.63 3.28 3.83 2.27 3 C1.52 2.34 0.77 1.68 0 1 C0 0.67 0 0.34 0 0 Z " fill="#A8ADC4" transform="translate(380,252)"/>
<path d="M0 0 C2.64 0.33 5.28 0.66 8 1 C8.33 1.99 8.66 2.98 9 4 C5.62 4.12 5.62 4.12 2 4 C1.34 3.34 0.68 2.68 0 2 C0 1.34 0 0.68 0 0 Z " fill="#020035" transform="translate(695,231)"/>
</svg>
